<svg width="120" height="23" viewBox="0 0 120 23" fill="none" xmlns="http://www.w3.org/2000/svg">
<g clip-path="url(#clip0_1350_905)">
<mask id="mask0_1350_905" style="mask-type:luminance" maskUnits="userSpaceOnUse" x="0" y="0" width="120" height="23">
<path d="M120 0V23H0V0H120Z" fill="white"/>
</mask>
<g mask="url(#mask0_1350_905)">
<path d="M32.9555 6.82698C32.7655 6.82153 32.5783 6.87572 32.4191 6.98233C32.2579 7.08189 32.125 7.22325 32.0339 7.3922L29.4064 12.223L28.7245 13.4762L25.4041 7.39261C25.3169 7.22063 25.1832 7.07827 25.0189 6.98274C24.8596 6.87616 24.6725 6.82197 24.4824 6.82739C24.2089 6.82767 23.9466 6.93931 23.7531 7.13785C23.5596 7.3364 23.4507 7.60563 23.4502 7.88651C23.452 8.06362 23.4944 8.2378 23.5739 8.39497L27.7968 16.1355C27.8777 16.2699 27.9747 16.3933 28.0856 16.5027C28.179 16.56 28.2754 16.6119 28.3744 16.6581C28.4865 16.6906 28.6019 16.7096 28.7183 16.7146C28.9245 16.7141 29.1259 16.6499 29.2961 16.5302C29.4422 16.4252 29.5605 16.2843 29.6399 16.1203L30.5616 14.4398L30.5578 14.4411L30.952 13.7199L30.9605 13.7053L31.0843 13.4776L31.2332 13.2051L33.8496 8.39456C33.9394 8.24094 33.9869 8.06523 33.9871 7.8861C33.9895 7.75003 33.9652 7.61486 33.9156 7.48866C33.866 7.36246 33.7921 7.24782 33.6984 7.15161C33.6046 7.04582 33.4896 6.96204 33.3614 6.90598C33.2333 6.84992 33.0948 6.82312 32.9555 6.82698Z" fill="#FFFFFF"/>
<path d="M53.0522 14.8499C52.8768 14.6826 52.6451 14.5915 52.4058 14.5955H47.0086V13.385C47.0119 13.3509 47.0135 13.3167 47.0136 13.2825V7.88647C47.0176 7.75685 46.9966 7.62769 46.9517 7.50647C46.9069 7.38525 46.839 7.27437 46.7521 7.18025C46.6608 7.06574 46.5451 6.97432 46.4139 6.91309C46.2827 6.85186 46.1396 6.82245 45.9955 6.82715H45.968C45.8207 6.82331 45.6745 6.85446 45.5409 6.91816C45.4073 6.98186 45.2898 7.0764 45.1976 7.19439C45.0365 7.38132 44.9484 7.62275 44.9501 7.87233V12.874H44.9443V14.8285H44.9501V15.6551C44.9477 15.9337 45.0513 16.2023 45.2389 16.4037C45.4404 16.5984 45.7052 16.7091 45.9817 16.7144H52.3918C52.6456 16.7161 52.8909 16.6203 53.0796 16.4459C53.19 16.3512 53.2783 16.2322 53.3378 16.0977C53.3973 15.9632 53.4266 15.8167 53.4234 15.669V15.6407C53.4275 15.488 53.3958 15.3365 53.3312 15.1989C53.2666 15.0613 53.1709 14.9415 53.052 14.8497" fill="#FFFFFF"/>
<path d="M60.2051 7.08127C60.0231 6.91582 59.7879 6.82525 59.5449 6.82695H56.6148L56.6264 6.83678H55.9299C55.8788 6.83008 55.8273 6.82679 55.7758 6.82695H51.9655C51.6941 6.82448 51.4325 6.93088 51.2364 7.12349C51.0424 7.32744 50.9338 7.6012 50.9338 7.88627C50.9338 8.02539 50.9605 8.16315 51.0123 8.29169C51.0641 8.42023 51.1401 8.53702 51.2359 8.63539C51.3317 8.73376 51.4455 8.81179 51.5706 8.86502C51.6958 8.91824 51.83 8.94562 51.9655 8.9456H54.7167V15.6549C54.7142 15.9335 54.8179 16.2021 55.0054 16.4035C55.2069 16.5982 55.4717 16.7089 55.7483 16.7142C55.8909 16.7183 56.0327 16.6901 56.1634 16.6315C56.2942 16.5729 56.4108 16.4854 56.5049 16.3752C56.5965 16.281 56.6683 16.1684 56.7156 16.0445C56.763 15.9206 56.7849 15.7879 56.7801 15.6549V8.95236H57.4281V8.94519H59.5311C59.7849 8.94689 60.0302 8.85114 60.2188 8.67672C60.3293 8.58205 60.4176 8.46304 60.4771 8.32854C60.5366 8.19404 60.5659 8.0475 60.5627 7.8998V7.87152C60.5693 7.71986 60.5403 7.5688 60.478 7.43111C60.4158 7.29341 60.3221 7.17314 60.2051 7.08045" fill="#FFFFFF"/>
<path d="M69.1049 6.82695C68.9554 6.82154 68.8068 6.8519 68.6707 6.91564C68.5346 6.97938 68.4148 7.07474 68.3208 7.1942C68.1965 7.34777 68.1156 7.53342 68.0869 7.73093C68.0869 7.78749 68.0731 7.90041 68.0731 8.05576V11.7707C68.0889 12.1784 68.0239 12.5852 67.8821 12.9664C67.7402 13.3476 67.5245 13.6953 67.2479 13.9883C67.011 14.2367 66.7181 14.4211 66.3951 14.525C66.3819 14.5298 66.3691 14.5349 66.3563 14.5402C66.2049 14.5778 66.0495 14.5966 65.8937 14.5962C65.7931 14.5963 65.6925 14.5889 65.5929 14.574C65.3064 14.514 65.0356 14.3916 64.7991 14.215C64.5625 14.0384 64.3656 13.8118 64.2216 13.5504C63.8894 13.0202 63.7171 12.401 63.7265 11.7707V7.82971C63.7138 7.55815 63.5993 7.30215 63.4071 7.11523C63.2148 6.92832 62.9596 6.82495 62.6949 6.82674C62.5592 6.8249 62.4245 6.8515 62.2991 6.90492C62.1738 6.95834 62.0604 7.03745 61.9658 7.13743C61.79 7.3195 61.6827 7.55973 61.6632 7.81536V11.7707C61.6554 12.8177 61.9468 13.8442 62.5015 14.7228C62.8813 15.3136 63.384 15.8106 63.9734 16.1779C64.2404 16.3351 64.5239 16.4608 64.8184 16.5527C64.8248 16.5558 64.831 16.5593 64.8383 16.5621C65.7115 16.9693 66.6659 16.6873 67.1251 16.5047C67.627 16.3257 68.0895 16.0467 68.486 15.6836C69.0099 15.2149 69.4237 14.6306 69.6965 13.9744C69.9948 13.2806 70.1448 12.5292 70.1366 11.7709V7.87213C70.1389 7.73817 70.1145 7.60514 70.0648 7.48124C70.0151 7.35735 69.9413 7.24522 69.8478 7.15177C69.7557 7.04381 69.641 6.95855 69.5124 6.90231C69.3838 6.84608 69.2446 6.82032 69.1049 6.82695Z" fill="#FFFFFF"/>
<path d="M73.5891 9.15702C73.7412 9.01984 73.9369 8.94447 74.1393 8.94512H78.6787C78.8164 8.94274 78.9521 8.91144 79.0775 8.85314C79.2028 8.79485 79.3153 8.71079 79.4078 8.60615C79.5928 8.41455 79.6967 8.15563 79.6967 7.88579C79.6967 7.61595 79.5928 7.35704 79.4078 7.16544C79.323 7.05872 79.2159 6.97287 79.0945 6.91422C78.9731 6.85556 78.8405 6.82558 78.7063 6.82647H74.0844C73.6533 6.82369 73.2283 6.93042 72.8471 7.13715C72.4652 7.33699 72.1278 7.61614 71.8566 7.95691C71.4422 8.48485 71.2186 9.1438 71.2237 9.82184C71.2209 10.3855 71.373 10.9386 71.6626 11.4175C71.9183 11.8261 72.2618 12.1691 72.6666 12.4203C73.0806 12.6703 73.5485 12.8111 74.0284 12.8301H74.2479L74.2507 12.8391H76.6983L76.6995 12.8301H76.7794C77.0066 12.8345 77.2231 12.9301 77.3825 13.0964C77.542 13.2627 77.6316 13.4866 77.6322 13.72C77.6342 13.8539 77.6053 13.9864 77.5479 14.1067C77.4906 14.2269 77.4063 14.3316 77.3021 14.412C77.1473 14.5313 76.9591 14.596 76.7656 14.5965H72.1851C72.0474 14.6026 71.9125 14.6384 71.7892 14.7017C71.666 14.765 71.5571 14.8543 71.4698 14.9637C71.31 15.1543 71.2222 15.3973 71.2222 15.6487C71.2222 15.9002 71.31 16.1432 71.4698 16.3338C71.6316 16.5293 71.8559 16.6595 72.1026 16.701C72.1577 16.701 72.2401 16.7151 72.3777 16.7151H76.7658C77.1275 16.715 77.4863 16.648 77.8249 16.5174C78.1863 16.3701 78.5175 16.1546 78.8015 15.8821C79.0952 15.5862 79.3249 15.2301 79.4755 14.8369C79.6219 14.4842 79.6966 14.1044 79.695 13.721C79.7021 13.1153 79.5241 12.5225 79.1861 12.026C78.9966 11.7183 78.7428 11.4578 78.4432 11.2632C78.01 10.9385 77.4934 10.7519 76.9576 10.7264H76.5217L76.1437 10.7172H75.5837C75.542 10.7133 75.5 10.7117 75.4582 10.7125H75.4444C75.4103 10.7118 75.3761 10.7133 75.3422 10.7172H74.5726L74.5778 10.7125H74.1375C74.0243 10.7118 73.9123 10.6876 73.8084 10.6415C73.7044 10.5953 73.6106 10.5282 73.5324 10.444C73.4494 10.3583 73.3847 10.2558 73.3422 10.143C73.2997 10.0303 73.2805 9.90973 73.2857 9.78896C73.2908 9.66818 73.3203 9.54982 73.3723 9.44134C73.4242 9.33286 73.4975 9.23661 73.5875 9.15866" fill="#FFFFFF"/>
<path d="M89.6554 13.6773C89.6003 13.6773 89.5317 13.6631 89.4491 13.6631C89.3218 13.6385 89.1974 13.6007 89.0776 13.5502C88.915 13.4488 88.7629 13.3304 88.6238 13.1971C88.5138 13.07 88.3625 12.8864 88.17 12.6462L87.0144 11.2055C86.9612 11.1211 86.8963 11.0452 86.8218 10.9801C86.749 10.8926 86.6602 10.8206 86.5604 10.7682C86.4244 10.6667 86.2606 10.6123 86.0925 10.6128H86.0239C85.9867 10.6113 85.9496 10.6161 85.9139 10.627C85.7505 10.6404 85.5936 10.699 85.4599 10.7964C85.3865 10.8408 85.3213 10.8982 85.2673 10.9659C85.2397 10.9942 85.1711 11.0647 85.0877 11.1637L84.0836 12.4343C84.001 12.5191 83.904 12.6462 83.7673 12.8157C83.6305 12.9852 83.5198 13.0981 83.4372 13.1829C83.2877 13.325 83.1155 13.4397 82.9282 13.5219C82.8457 13.5502 82.7495 13.5785 82.6394 13.6068C82.5844 13.6068 82.5157 13.6209 82.4331 13.6209C82.2639 13.6154 82.0968 13.582 81.9379 13.5221C81.7975 13.4643 81.6674 13.3832 81.5527 13.2819L81.8966 15.6973V15.7256C81.9091 15.7468 81.914 15.7718 81.9104 15.7963C81.9379 15.881 81.9517 15.9517 81.9792 16.0365C82.0512 16.1771 82.1493 16.3019 82.268 16.4037C82.3513 16.4735 82.444 16.5305 82.543 16.5732C82.6551 16.6057 82.7704 16.6246 82.8867 16.6296H82.928C83.0107 16.6296 83.0655 16.6154 83.1206 16.6154C83.3259 16.57 83.513 16.4617 83.6571 16.3048L83.7946 16.1636L86.0367 13.3243L88.2101 16.0646C88.32 16.1916 88.3897 16.2765 88.4164 16.3048C88.5875 16.4725 88.8025 16.5854 89.0351 16.6296H89.1864C89.3134 16.6293 89.4392 16.6053 89.5578 16.5589C89.7491 16.4724 89.915 16.336 90.0392 16.1634C90.12 16.029 90.176 15.8806 90.2043 15.7254V15.6971L90.5481 13.3383C90.3945 13.476 90.2103 13.573 90.0117 13.6207C89.8951 13.6543 89.775 13.6733 89.654 13.6773" fill="#E6262A"/>
<path d="M90.4534 6.8412H90.4258C90.3811 6.82879 90.3346 6.82402 90.2883 6.82706C90.0452 6.82528 89.81 6.91578 89.6279 7.08119C89.4349 7.24522 89.3075 7.47661 89.2703 7.73104L88.6236 12.2087C88.6236 12.237 88.6099 12.2794 88.6099 12.3077C88.6155 12.5606 88.7085 12.8031 88.8723 12.992C89.0361 13.1809 89.26 13.3038 89.504 13.3388C89.5591 13.3388 89.6002 13.3529 89.6553 13.3529C89.7979 13.357 89.9396 13.3288 90.0704 13.2702C90.2012 13.2116 90.3178 13.1241 90.4119 13.0139C90.5494 12.8659 90.6404 12.679 90.6733 12.4772V12.4489L91.306 8.04276V8.02861C91.3167 7.98239 91.3213 7.9349 91.3197 7.88741C91.3202 7.68648 91.2628 7.48991 91.1547 7.3224C91.0831 7.19103 90.9822 7.079 90.8603 6.99552C90.7383 6.91204 90.5988 6.8595 90.4532 6.84223" fill="#E6262A"/>
<path d="M81.7874 13.0702C81.9745 13.2132 82.2007 13.2921 82.4339 13.2956C82.4889 13.2956 82.5438 13.2815 82.5989 13.2815C82.7403 13.2612 82.8758 13.2105 82.9967 13.1326C83.1176 13.0547 83.2211 12.9515 83.3004 12.8296C83.4209 12.6622 83.4841 12.4586 83.48 12.2505C83.4823 12.2076 83.4776 12.1647 83.4663 12.1234L82.8334 7.73054C82.8209 7.60074 82.7827 7.47492 82.7212 7.36079C82.6597 7.24666 82.5762 7.1466 82.4758 7.06674C82.2924 6.90528 82.057 6.81966 81.8156 6.82656C81.7693 6.82493 81.7231 6.82968 81.678 6.8407H81.6505C81.503 6.85772 81.3615 6.91004 81.2372 6.99343C81.113 7.07682 81.0096 7.18897 80.9352 7.32087C80.8374 7.49231 80.7852 7.68717 80.7839 7.88588C80.7839 7.92831 80.7977 7.97073 80.7977 8.02709V8.04123L81.4306 12.4341C81.4713 12.6832 81.5983 12.9088 81.7882 13.0694" fill="#E6262A"/>
<path d="M97.7711 7.40615C97.7021 7.25943 97.598 7.13307 97.4685 7.0389C97.385 6.96536 97.2862 6.91225 97.1798 6.88356C97.0746 6.84197 96.9623 6.82273 96.8497 6.827C96.643 6.82493 96.441 6.88944 96.2719 7.01144C96.1187 7.11226 95.9951 7.25394 95.9142 7.42132L95.5133 8.16381L94.4346 10.1482L94.4366 10.1497L91.7051 15.1479C91.6199 15.3096 91.5769 15.4912 91.5805 15.675C91.5841 15.8588 91.6341 16.0385 91.7256 16.1965C91.8171 16.3545 91.947 16.4855 92.1025 16.5765C92.2581 16.6676 92.434 16.7156 92.613 16.7159C92.8022 16.7145 92.9875 16.6609 93.1495 16.5605C93.3108 16.4611 93.4437 16.3197 93.5347 16.1507L96.2874 11.0887L96.8505 10.0771L100.165 16.1498C100.26 16.3158 100.392 16.4563 100.55 16.5597C100.712 16.6601 100.897 16.7137 101.087 16.7151C101.219 16.7175 101.351 16.6925 101.474 16.6416C101.596 16.5906 101.708 16.5148 101.802 16.4185C101.903 16.3205 101.983 16.2022 102.037 16.071C102.092 15.9397 102.119 15.7984 102.118 15.6557C102.122 15.4761 102.074 15.2994 101.981 15.1473L97.7711 7.40615Z" fill="#E6262A"/>
<path d="M109.409 6.82695C109.219 6.8215 109.032 6.87569 108.872 6.9823C108.711 7.08187 108.578 7.22322 108.487 7.39217L105.761 12.4046L105.17 13.4633L101.857 7.39217C101.77 7.22018 101.636 7.07781 101.472 6.9823C101.313 6.8757 101.126 6.82151 100.936 6.82695C100.662 6.82739 100.4 6.93913 100.207 7.13769C100.013 7.33625 99.9043 7.60544 99.9038 7.88628C99.9056 8.06338 99.948 8.23756 100.028 8.39473L104.25 16.1352C104.331 16.2696 104.428 16.393 104.539 16.5025C104.633 16.5598 104.729 16.6116 104.828 16.6578C104.94 16.6904 105.056 16.7094 105.172 16.7144C105.378 16.7139 105.58 16.6496 105.75 16.53C105.896 16.425 106.014 16.2841 106.094 16.1201L107.015 14.4396L107.008 14.442L107.586 13.3948L107.584 13.3936L110.303 8.39309C110.393 8.23947 110.44 8.06377 110.441 7.88464C110.443 7.74857 110.419 7.6134 110.369 7.4872C110.319 7.361 110.245 7.24637 110.152 7.15014C110.058 7.04435 109.943 6.96057 109.815 6.90452C109.687 6.84846 109.548 6.82145 109.409 6.82532" fill="#E6262A"/>
<path d="M119.009 14.5954H113.588V13.3068C113.588 13.2894 113.589 13.2717 113.589 13.2539V12.8303H117.826C118.067 12.8305 118.3 12.7457 118.487 12.5901C118.604 12.4905 118.698 12.3652 118.763 12.2233C118.827 12.0815 118.859 11.9268 118.858 11.7704C118.862 11.516 118.774 11.2693 118.61 11.0783C118.516 10.9588 118.397 10.8635 118.26 10.7997C118.124 10.736 117.976 10.7056 117.826 10.711H113.589V8.94426H114.855C114.869 8.94426 114.882 8.94528 114.896 8.94528H118.996C119.135 8.94352 119.271 8.91118 119.397 8.85044C119.523 8.7897 119.634 8.70198 119.724 8.5932C119.817 8.4926 119.889 8.37371 119.937 8.24367C119.984 8.11364 120.005 7.97516 119.998 7.83657C119.992 7.69799 119.958 7.56218 119.899 7.43732C119.84 7.31246 119.757 7.20113 119.655 7.11006C119.568 7.018 119.463 6.94542 119.347 6.89684C119.231 6.84825 119.107 6.8247 118.982 6.82765H115.978V6.8252H112.789V6.82765H112.544C112.396 6.82654 112.249 6.86034 112.116 6.92646C111.982 6.99257 111.865 7.08924 111.774 7.20904C111.611 7.38922 111.522 7.62707 111.526 7.87284V13.2687C111.526 13.2728 111.526 13.2771 111.527 13.2812V14.1175L111.526 14.1161V15.6556C111.524 15.9343 111.628 16.2029 111.815 16.4042C112.017 16.5989 112.281 16.7096 112.558 16.7149H118.968C119.242 16.7145 119.504 16.6027 119.697 16.4041C119.891 16.2056 119.999 15.9364 120 15.6556C120.002 15.5195 119.978 15.3843 119.928 15.2581C119.878 15.1319 119.805 15.0173 119.711 14.9211C119.623 14.8187 119.515 14.7368 119.394 14.6807C119.273 14.6247 119.142 14.5959 119.009 14.5962" fill="#E6262A"/>
<path d="M42.7166 14.9705C42.7492 14.9309 42.7812 14.8907 42.8126 14.85L42.8285 14.8295C42.8474 14.8048 42.8661 14.7798 42.8844 14.7545L42.914 14.7135L42.9581 14.652C43.0717 14.4871 43.1754 14.3152 43.2686 14.1372C43.6574 13.4128 43.8573 12.5975 43.849 11.7704C43.8649 10.9022 43.6459 10.0464 43.2163 9.29843C42.7971 8.54422 42.1903 7.91791 41.4579 7.48358C40.7256 7.04924 39.894 6.82247 39.0483 6.82646C37.9478 6.8094 36.8782 7.20059 36.0359 7.92821C35.4248 8.43167 34.9463 9.08422 34.6438 9.82635C34.6331 9.85231 34.6224 9.8784 34.6119 9.90463L34.5975 9.94091C34.4974 10.1984 34.4186 10.4641 34.362 10.7352C34.3606 10.7414 34.359 10.7471 34.3578 10.7533C34.2983 11.0433 34.2642 11.3382 34.2559 11.6345C34.2501 11.6845 34.2472 11.7348 34.2471 11.7851C34.2473 11.8276 34.25 11.8701 34.2553 11.9122C34.276 12.9027 34.5875 13.8637 35.149 14.6695C35.7104 15.4752 36.4957 16.0881 37.4019 16.4281C38.3082 16.768 39.2933 16.8191 40.2283 16.5746C41.1633 16.3302 42.0047 15.8016 42.6423 15.058L42.6683 15.0279L42.7154 14.9709M39.0499 14.5641C38.512 14.5641 37.9862 14.4003 37.539 14.0935C37.0917 13.7866 36.7431 13.3504 36.5373 12.8401C36.3314 12.3298 36.2776 11.7683 36.3825 11.2266C36.4875 10.6849 36.7465 10.1872 37.1268 9.79668C37.5072 9.40612 37.9918 9.14014 38.5194 9.03238C39.0469 8.92463 39.5937 8.97993 40.0907 9.1913C40.5876 9.40268 41.0124 9.76062 41.3112 10.2199C41.6101 10.6791 41.7696 11.2191 41.7696 11.7714C41.7606 12.5092 41.4712 13.2142 40.9631 13.736C40.455 14.2577 39.7684 14.5549 39.0499 14.5641Z" fill="#FFFFFF"/>
<path d="M6.28167 7.40864C6.19134 7.23075 6.05268 7.0836 5.88252 6.98503C5.71778 6.87479 5.52424 6.81874 5.32769 6.82436C5.04486 6.82474 4.77373 6.94026 4.57372 7.1456C4.37372 7.35094 4.26116 7.62933 4.26074 7.91975C4.26265 8.10294 4.30654 8.2831 4.38887 8.44562L8.75605 16.4491C8.83986 16.5881 8.94045 16.7157 9.05542 16.8288C9.1522 16.8881 9.25215 16.9417 9.35478 16.9895C9.47071 17.0231 9.59007 17.0427 9.71043 17.0479C9.92365 17.0477 10.1319 16.9816 10.308 16.8581C10.4591 16.7497 10.5814 16.604 10.6636 16.4345L15.0166 8.44562C15.1095 8.28677 15.1587 8.10503 15.1589 7.91975C15.1613 7.77899 15.136 7.63918 15.0846 7.50868C15.0332 7.37819 14.9566 7.25968 14.8596 7.16025C14.7625 7.05087 14.6437 6.96424 14.5111 6.90628C14.3786 6.84831 14.2354 6.82037 14.0914 6.82436C13.8948 6.81874 13.7013 6.87479 13.5366 6.98503C13.3696 7.08779 13.2319 7.23389 13.1374 7.40864L9.71383 13.6961L6.28167 7.40864Z" fill="#E6262A"/>
<path d="M0.0199579 5.73294L0 17.2328L9.69093 23L19.401 17.2671L19.421 5.76716L9.72945 0L0.0199579 5.73294ZM17.5248 16.1504L9.69473 20.7731L1.88003 16.1227L1.896 6.84985L9.72566 2.22686L17.5404 6.87731L17.5248 16.1504Z" fill="#E6262A"/>
</g>
</g>
<defs>
<clipPath id="clip0_1350_905">
<rect width="120" height="23" fill="white"/>
</clipPath>
</defs>
</svg>
